<svg xmlns="http://www.w3.org/2000/svg" xmlns:xlink="http://www.w3.org/1999/xlink"><defs><symbol viewBox="0 0 24 24" id="i-close"><line x1="16.45" y1="8.54984" x2="8.31796" y2="16.6819" stroke="#777777" /><line x1="16.6464" y1="16.6817" x2="8.51442" y2="8.54965" stroke="#777777" /></symbol><symbol viewBox="0 0 16 17" id="i-inst"><path d="M8 4.70703C5.75 4.70703 3.95703 6.53516 3.95703 8.75C3.95703 11 5.75 12.793 8 12.793C10.2148 12.793 12.043 11 12.043 8.75C12.043 6.53516 10.2148 4.70703 8 4.70703ZM8 11.3867C6.55859 11.3867 5.36328 10.2266 5.36328 8.75C5.36328 7.30859 6.52344 6.14844 8 6.14844C9.44141 6.14844 10.6016 7.30859 10.6016 8.75C10.6016 10.2266 9.44141 11.3867 8 11.3867ZM13.1328 4.56641C13.1328 4.03906 12.7109 3.61719 12.1836 3.61719C11.6562 3.61719 11.2344 4.03906 11.2344 4.56641C11.2344 5.09375 11.6562 5.51562 12.1836 5.51562C12.7109 5.51562 13.1328 5.09375 13.1328 4.56641ZM15.8047 5.51562C15.7344 4.25 15.4531 3.125 14.5391 2.21094C13.625 1.29688 12.5 1.01562 11.2344 0.945312C9.93359 0.875 6.03125 0.875 4.73047 0.945312C3.46484 1.01562 2.375 1.29688 1.42578 2.21094C0.511718 3.125 0.230468 4.25 0.160155 5.51562C0.0898428 6.81641 0.0898428 10.7188 0.160155 12.0195C0.230468 13.2852 0.511718 14.375 1.42578 15.3242C2.375 16.2383 3.46484 16.5195 4.73047 16.5898C6.03125 16.6602 9.93359 16.6602 11.2344 16.5898C12.5 16.5195 13.625 16.2383 14.5391 15.3242C15.4531 14.375 15.7344 13.2852 15.8047 12.0195C15.875 10.7188 15.875 6.81641 15.8047 5.51562ZM14.1172 13.3906C13.8711 14.0938 13.3086 14.6211 12.6406 14.9023C11.5859 15.3242 9.125 15.2188 8 15.2188C6.83984 15.2188 4.37891 15.3242 3.35937 14.9023C2.65625 14.6211 2.12891 14.0938 1.84766 13.3906C1.42578 12.3711 1.53125 9.91016 1.53125 8.75C1.53125 7.625 1.42578 5.16406 1.84766 4.10938C2.12891 3.44141 2.65625 2.91406 3.35937 2.63281C4.37891 2.21094 6.83984 2.31641 8 2.31641C9.125 2.31641 11.5859 2.21094 12.6406 2.63281C13.3086 2.87891 13.8359 3.44141 14.1172 4.10938C14.5391 5.16406 14.4336 7.625 14.4336 8.75C14.4336 9.91016 14.5391 12.3711 14.1172 13.3906Z" /></symbol><symbol viewBox="0 0 18 18" id="i-mail"><path d="M11.6632 9.74707L10.1556 11.2597C9.5443 11.8732 8.46866 11.8864 7.8441 11.2597L6.3365 9.74707L0.921875 15.1793C1.12343 15.2725 1.34565 15.3281 1.5819 15.3281H16.4178C16.6541 15.3281 16.8762 15.2725 17.0777 15.1793L11.6632 9.74707Z" /><path d="M16.4178 2.67188H1.58183C1.34558 2.67188 1.12336 2.72749 0.921875 2.82069L6.70779 8.6258C6.70817 8.62618 6.70863 8.62625 6.70902 8.62664C6.7094 8.62703 6.70947 8.62755 6.70947 8.62755L8.59079 10.5151C8.79062 10.7149 9.20905 10.7149 9.40888 10.5151L11.2898 8.62787C11.2898 8.62787 11.2903 8.62703 11.2907 8.62664C11.2907 8.62664 11.2915 8.62618 11.2919 8.6258L17.0777 2.82066C16.8762 2.72742 16.654 2.67188 16.4178 2.67188Z" /><path d="M0.168258 3.55823C0.0639844 3.76909 0 4.00316 0 4.2539V13.7461C0 13.9968 0.0639141 14.2309 0.168223 14.4418L5.59223 9.00017L0.168258 3.55823Z" /><path d="M17.8321 3.55811L12.4082 9.00012L17.8321 14.4418C17.9364 14.2309 18.0004 13.9968 18.0004 13.746V4.25385C18.0004 4.00304 17.9364 3.76897 17.8321 3.55811Z" /></symbol><symbol viewBox="0 0 26 26" id="i-tg"><g clip-path="url(#i-tg_clip0_1255_21681)"><path d="M11.2781 15.1206L11.0135 18.8433C11.3921 18.8433 11.5561 18.6806 11.7528 18.4853L13.5281 16.7886L17.2068 19.4826C17.8815 19.8586 18.3568 19.6606 18.5388 18.8619L20.9535 7.54728L20.9541 7.54661C21.1681 6.54928 20.5935 6.15928 19.9361 6.40394L5.74279 11.8379C4.77412 12.2139 4.78879 12.7539 5.57812 12.9986L9.20679 14.1273L17.6355 8.85328C18.0321 8.59061 18.3928 8.73594 18.0961 8.99861L11.2781 15.1206Z" /></g><defs></defs></symbol><clipPath id="i-tg_clip0_1255_21681"><rect width="16" height="16" transform="translate(5 5)" /></clipPath></defs></svg>